<svg height="35" viewBox="0 0 144.083 144" width="35" xmlns="http://www.w3.org/2000/svg"><path d="M72.04 14.166C40.1 14.166 14.207 40.06 14.207 72c0 31.94 25.893 57.834 57.833 57.834 31.941 0 57.835-25.895 57.835-57.834 0-31.94-25.894-57.834-57.835-57.834zM56.731 97.662C42.758 97.662 31.43 86.174 31.43 72c0-14.173 11.328-25.662 25.301-25.662 6.455 0 12.343 2.455 16.813 6.491l-7.298 7.464-.15.094c-2.604-2.295-6-3.688-9.721-3.688-8.2 0-14.847 6.742-14.847 15.06 0 8.317 6.647 15.059 14.847 15.059 6.36 0 11.784-4.057 13.899-9.758H56.492v-10h25.059c.307 1.602.48 3.249.48 4.94.001 14.174-11.328 25.662-25.3 25.662zm55.422-23.773h-8.852v8.848h-6.574v-8.848h-8.85v-6.577h8.85v-8.85h6.574v8.85h8.852v6.577z"/></svg>